<svg version="1.1" xmlns="http://www.w3.org/2000/svg" width="100" viewBox="0 0 100 60">
  <g stroke="#999999" opacity="0.52" fill="none">
    <line stroke-width="3" stroke-linecap="round" 
      x1="30" x2="30" y1="9" y2="15" />
    <line stroke-width="3" stroke-linecap="round" 
      x1="50" x2="50" y1="9" y2="15" />
    <line stroke-width="3" stroke-linecap="round" 
      x1="70" x2="70" y1="9" y2="15" />
    <rect stroke-width="3" stroke-linejoin="round" 
      x="23" y="13" width="54" height="36" />
  </g>
  <g fill="#999999" opacity="0.39" stroke-width="1.7" stroke-linejoin="round">
    <rect x="27" y="20" width="6" height="5" />
    <rect x="37" y="20" width="6" height="5" />
    <rect x="47" y="20" width="6" height="5" />
    <rect x="57" y="20" width="6" height="5" />

    <rect x="27" y="29" width="6" height="5" />
    <rect x="37" y="29" width="6" height="5" />
    <rect x="47" y="29" width="6" height="5" />
    <rect x="57" y="29" width="6" height="5" />

    <rect x="27" y="38" width="6" height="5" />
    <rect x="37" y="38" width="6" height="5" />
    <rect x="47" y="38" width="6" height="5" />
    <rect x="57" y="38" width="6" height="5" />
  </g>
  <g fill="#44eeff" stroke-width="1.7" stroke-linejoin="round" transform="translate(-0.5,-0.2)">
    <rect x="67" y="20" width="6" height="5" />
    <rect x="67" y="29" width="6" height="5" />
    <rect x="67" y="38" width="6" height="5" />
  </g>
  <g fill="#3344cc" stroke-width="1.7" stroke-linejoin="round" transform="translate(1,0.5)">
    <rect x="67" y="20" width="6" height="5" />
    <rect x="67" y="29" width="6" height="5" />
    <rect x="67" y="38" width="6" height="5" />
  </g>
</svg>
